<svg width="148" height="184" viewBox="0 0 148 184" fill="none" xmlns="http://www.w3.org/2000/svg">
<g opacity="0.2" clip-path="url(#clip0_2234_8803)">
<path d="M6.09747 0C-72.4557 0 -136 63.5443 -136 142.097C-136 220.456 -72.4557 284.195 6.09747 284.195C84.4557 284.195 148.195 220.651 148.195 142.097C148 63.5443 84.4557 0 6.09747 0ZM6.09747 275.034C-67.3878 275.034 -126.839 215.583 -126.839 142.097C-126.839 68.6122 -67.3878 9.16129 6.09747 9.16129C79.5827 9.16129 139.034 68.6122 139.034 142.097C139.034 215.388 79.3878 275.034 6.09747 275.034Z" fill="white"/>
<path d="M6.09875 30.6025C-55.3014 30.6025 -105.201 80.5023 -105.201 141.902C-105.201 203.303 -55.3014 253.202 6.09875 253.202C67.4989 253.202 117.399 203.498 117.399 142.097C117.399 80.5023 67.4989 30.6025 6.09875 30.6025ZM6.09875 236.244C-45.9452 236.244 -88.243 193.946 -88.243 141.902C-88.243 89.8585 -45.9452 47.5607 6.09875 47.5607C58.1427 47.5607 100.441 89.8585 100.441 141.902C100.441 193.946 58.1427 236.244 6.09875 236.244Z" fill="white"/>
<path d="M6.098 79.5273C-28.403 79.5273 -56.4717 107.596 -56.4717 142.097C-56.4717 176.598 -28.598 204.667 6.098 204.667C40.599 204.667 68.6677 176.598 68.6677 142.097C68.4727 107.596 40.599 79.5273 6.098 79.5273ZM6.098 175.623C-12.4195 175.623 -27.4284 160.614 -27.4284 142.097C-27.4284 123.579 -12.4195 108.571 6.098 108.571C24.6155 108.571 39.6244 123.579 39.6244 142.097C39.6244 160.614 24.6155 175.623 6.098 175.623Z" fill="white"/>
</g>
<defs>
<clipPath id="clip0_2234_8803">
<rect width="284" height="284" fill="white" transform="translate(-136)"/>
</clipPath>
</defs>
</svg>
