<svg width="112" height="287" viewBox="0 0 112 287" fill="none" xmlns="http://www.w3.org/2000/svg">
<path d="M-32.4015 0C-111.784 0 -176 64.2155 -176 143.598C-176 222.784 -111.784 287.197 -32.4015 287.197C46.7845 287.197 111.197 222.981 111.197 143.598C111 64.2155 46.7845 0 -32.4015 0ZM-32.4015 277.939C-106.663 277.939 -166.742 217.86 -166.742 143.598C-166.742 69.337 -106.663 9.25806 -32.4015 9.25806C41.86 9.25806 101.939 69.337 101.939 143.598C101.939 217.663 41.663 277.939 -32.4015 277.939Z" fill="#FFCF2D"/>
<path d="M-32.4004 30.9258C-94.4491 30.9258 -144.876 81.3527 -144.876 143.401C-144.876 205.45 -94.4491 255.877 -32.4004 255.877C29.6484 255.877 80.0753 205.647 80.0753 143.598C80.0753 81.3527 29.6484 30.9258 -32.4004 30.9258ZM-32.4004 238.74C-84.994 238.74 -127.739 195.995 -127.739 143.401C-127.739 90.8077 -84.994 48.0631 -32.4004 48.0631C20.1933 48.0631 62.938 90.8077 62.938 143.401C62.938 195.995 20.1933 238.74 -32.4004 238.74Z" fill="#FFCF2D"/>
</svg>
